<?xml version="1.0" encoding="UTF-8" standalone="no"?>
<!-- Created with Inkscape (http://www.inkscape.org/) -->
<svg
   xmlns:svg="http://www.w3.org/2000/svg"
   xmlns="http://www.w3.org/2000/svg"
   version="1.0"
   width="700.00201"
   height="642.96173"
   id="svg2">
  <defs
     id="defs4" />
  <g
     transform="translate(842.79199,79.480493)"
     id="layer1">
    <path
       d="M -708.21654,562.81447 C -794.74185,548.71937 -861.68727,455.61858 -837.96367,369.23019 C -824.45444,301.15456 -757.09628,249.8571 -687.73541,256.12695 C -653.35482,268.15324 -598.88666,249.04153 -609.53248,205.14838 C -635.0011,167.72282 -658.92522,125.81651 -659.06398,79.005167 C -658.60443,11.854107 -614.68188,-57.98155 -546.78515,-73.889227 C -474.45633,-93.666735 -390.32691,-59.772647 -357.16995,8.7455482 C -329.84763,63.250289 -333.24448,135.59239 -377.59983,180.34697 C -404.95964,220.859 -361.11451,265.83709 -318.04133,249.90805 C -249.80787,242.53768 -177.44943,281.47176 -153.68736,347.41835 C -123.30915,420.98341 -158.46749,516.08968 -233.98291,545.82451 C -302.49736,572.69571 -392.13987,553.52962 -432.96634,489.0068 C -449.43025,461.68485 -475.69231,402.17598 -514.11567,437.69107 C -543.97837,467.5986 -554.51814,514.39339 -593.84161,535.46931 C -627.42512,557.21216 -668.53835,566.11119 -708.21654,562.81447 z M -663.48668,464.11168 C -620.28915,450.58984 -621.30102,395.848 -590.75134,368.59527 C -550.41921,328.24947 -485.56971,323.51877 -433.3132,339.41301 C -390.25675,356.54026 -372.77575,402.61471 -348.35794,437.96165 C -322.74383,473.63361 -259.62873,468.91052 -247.00233,424.12492 C -229.76827,382.34505 -270.34275,336.68961 -313.57218,343.45118 C -345.43773,346.44216 -379.17699,349.19476 -407.99068,332.13578 C -447.50458,313.92089 -477.56325,277.34537 -485.50067,234.35882 C -498.44938,184.26625 -465.56423,138.32573 -443.01031,96.586213 C -423.06724,49.38124 -483.27742,2.6027863 -526.44287,24.030277 C -568.68543,42.006236 -569.24095,98.535068 -539.85611,128.61061 C -506.74729,166.05776 -496.14979,221.60179 -517.7426,267.39642 C -542.36008,324.96834 -608.4062,360.64635 -670.07015,349.28251 C -713.5463,342.46744 -762.1596,384.23504 -741.27845,429.19357 C -729.74627,462.56167 -695.17495,472.60622 -663.48668,464.11168 z"
       id="path2472"
       style="fill:#0080ff;fill-opacity:1" />
  </g>
</svg>
